<svg width="250" height="250" viewBox="0 0 250 250" fill="none" xmlns="http://www.w3.org/2000/svg">
<rect width="250" height="250" rx="8" fill="#2260C9"/>
<path d="M57.324 140.138C59.916 142.676 63.318 143.648 66.99 143.648C74.388 143.648 79.68 139.706 79.68 131.174V106.982H72.012V131.066C72.012 134.576 69.798 136.844 66.396 136.844C63.912 136.844 62.076 135.602 60.672 134.252L57.324 140.138ZM111.126 143V116.918H104.268V134.576C103.08 136.088 100.974 137.546 98.3277 137.546C95.4117 137.546 93.5217 136.358 93.5217 132.74V116.918H86.6637V135.44C86.6637 140.516 89.3637 143.648 95.0877 143.648C99.3537 143.648 102.486 141.704 104.268 139.706V143H111.126ZM115.667 139.598C118.421 142.136 122.795 143.648 127.331 143.648C134.567 143.648 138.617 140.084 138.617 135.278C138.617 128.798 132.623 127.61 128.141 126.746C125.225 126.152 123.173 125.558 123.173 123.938C123.173 122.426 124.793 121.508 127.277 121.508C130.463 121.508 133.433 122.858 134.999 124.532L137.699 119.834C135.161 117.782 131.651 116.27 127.223 116.27C120.365 116.27 116.531 120.104 116.531 124.478C116.531 130.688 122.309 131.768 126.791 132.632C129.761 133.226 132.029 133.874 132.029 135.71C132.029 137.33 130.625 138.356 127.655 138.356C124.415 138.356 120.527 136.574 118.637 134.792L115.667 139.598ZM152.418 143.648C155.28 143.648 157.116 142.892 158.142 141.974L156.684 136.79C156.306 137.168 155.334 137.546 154.308 137.546C152.796 137.546 151.932 136.304 151.932 134.684V122.912H157.224V116.918H151.932V109.79H145.02V116.918H140.7V122.912H145.02V136.52C145.02 141.164 147.612 143.648 152.418 143.648ZM184.434 143V126.152C184.434 118.646 178.98 116.27 173.04 116.27C168.936 116.27 164.832 117.566 161.646 120.374L164.238 124.964C166.452 122.912 169.044 121.886 171.852 121.886C175.308 121.886 177.576 123.614 177.576 126.26V129.878C175.848 127.772 172.77 126.692 169.314 126.692C165.156 126.692 160.242 128.906 160.242 135.008C160.242 140.84 165.156 143.648 169.314 143.648C172.716 143.648 175.794 142.406 177.576 140.3V143H184.434ZM177.576 136.736C176.442 138.248 174.282 139.004 172.068 139.004C169.368 139.004 167.154 137.6 167.154 135.17C167.154 132.686 169.368 131.228 172.068 131.228C174.282 131.228 176.442 131.984 177.576 133.496V136.736Z" fill="white"/>
</svg>
